<?xml version="1.0" ?><!DOCTYPE svg  PUBLIC '-//W3C//DTD SVG 1.0//EN'  'http://www.w3.org/TR/2001/REC-SVG-20010904/DTD/svg10.dtd'><svg enable-background="new 0 0 32 32" height="32px" id="Layer_1" version="1.0" viewBox="0 0 32 32" width="32px" xml:space="preserve" xmlns="http://www.w3.org/2000/svg" xmlns:xlink="http://www.w3.org/1999/xlink"><g><path d="M12.914,15.272c0,0,3.027-0.23,3.027-3.852c0-3.619-2.053-5.403-5.191-5.403L0,6v20h11c0,0,5.5,0.174,5.5-6   C16.5,20,16.904,15.272,12.914,15.272z M4,9h5.5c0,0,1.882,0.031,1.882,2.471C11.382,14,9.5,14,9.5,14H4V9z M10,23H4v-6h6   c0,0,3,0.031,3,3S10.432,23,10,23z" fill="#111111"/><path d="M25,11c-7.513,0-7.5,7.5-7.5,7.5S17,26,25,26c0,0,7,0,7-6h-4c0,0,0,3-3,3c0,0-3,0-3-4c0,0,8,0,10,0   C32,17,32,11,25,11z M22,17c0,0-0.066-3,3-3c3.065,0,3,3,3,3H22z" fill="#111111"/><rect fill="#111111" height="2" width="8" x="21" y="8"/></g><g/><g/><g/><g/><g/><g/></svg>