<svg xmlns="http://www.w3.org/2000/svg">
  <defs>
    <!-- Next.js Icon -->
    <symbol id="nextjs" viewBox="0 0 128 128">
      <path d="M64 0C28.7 0 0 28.7 0 64s28.7 64 64 64c11.2 0 21.7-2.9 30.8-7.9L48.4 55.3v36.6h-6.8V41.8h6.8l50.5 75.8C116.4 106.2 128 86.5 128 64c0-35.3-28.7-64-64-64zm22.1 84.6l-7.5-11.3V41.8h7.5v42.8z"/>
    </symbol>

    <!-- JavaScript Icon -->
    <symbol id="javascript" viewBox="0 0 128 128">
<path fill="#F0DB4F" d="M1.408 1.408h125.184v125.185H1.408z"/><path fill="#323330" d="M116.347 96.736c-.917-5.711-4.641-10.508-15.672-14.981-3.832-1.761-8.104-3.022-9.377-5.926-.452-1.69-.512-2.642-.226-3.665.821-3.32 4.784-4.355 7.925-3.403 2.023.678 3.938 2.237 5.093 4.724 5.402-3.498 5.391-3.475 9.163-5.879-1.381-2.141-2.118-3.129-3.022-4.045-3.249-3.629-7.676-5.498-14.756-5.355l-3.688.477c-3.534.893-6.902 2.748-8.877 5.235-5.926 6.724-4.236 18.492 2.975 23.335 7.104 5.332 17.54 6.545 18.873 11.531 1.297 6.104-4.486 8.08-10.234 7.378-4.236-.881-6.592-3.034-9.139-6.949-4.688 2.713-4.688 2.713-9.508 5.485 1.143 2.499 2.344 3.63 4.26 5.795 9.068 9.198 31.76 8.746 35.83-5.176.165-.478 1.261-3.666.38-8.581zM69.462 58.943H57.753l-.048 30.272c0 6.438.333 12.34-.714 14.149-1.713 3.558-6.152 3.117-8.175 2.427-2.059-1.012-3.106-2.451-4.319-4.485-.333-.584-.583-1.036-.667-1.071l-9.52 5.83c1.583 3.249 3.915 6.069 6.902 7.901 4.462 2.678 10.459 3.499 16.731 2.059 4.082-1.189 7.604-3.652 9.448-7.401 2.666-4.915 2.094-10.864 2.07-17.444.06-10.735.001-21.468.001-32.237z"/>
    </symbol>

    <!-- React Icon -->
    <symbol id="react" viewBox="0 0 128 128">
      <g fill="#61DAFB">
        <circle cx="64" cy="64" r="11.4"/>
        <path d="M107.3 45.2c-2.2-.8-4.5-1.6-6.9-2.3.6-2.4 1.1-4.8 1.5-7.1 2.1-13.2-.2-22.5-6.6-26.1-1.9-1.1-4-1.6-6.4-1.6-7 0-15.9 5.2-24.9 13.9-9-8.7-17.9-13.9-24.9-13.9-2.4 0-4.5.5-6.4 1.6-6.4 3.7-8.7 13-6.6 26.1.4 2.3.9 4.7 1.5 7.1-2.4.7-4.7 1.4-6.9 2.3C8.2 50 1.4 56.6 1.4 64s6.9 14 19.3 18.8c2.2.8 4.5 1.6 6.9 2.3-.6 2.4-1.1 4.8-1.5 7.1-2.1 13.2.2 22.5 6.6 26.1 1.9 1.1 4 1.6 6.4 1.6 7.1 0 16-5.2 24.9-13.9 9 8.7 17.9 13.9 24.9 13.9 2.4 0 4.5-.5 6.4-1.6 6.4-3.7 8.7-13 6.6-26.1-.4-2.3-.9-4.7-1.5-7.1 2.4-.7 4.7-1.4 6.9-2.3 12.5-4.8 19.3-11.4 19.3-18.8s-6.8-14-19.3-18.8zM92.5 14.7c4.1 2.4 5.5 9.8 3.8 20.3-.3 2.1-.8 4.3-1.4 6.6-5.2-1.2-10.7-2-16.5-2.5-3.4-4.8-6.9-9.1-10.4-13 7.4-7.3 14.9-12.3 21-12.3 1.3 0 2.5.3 3.5.9zM81.3 74c-1.8 3.2-3.9 6.4-6.1 9.6-3.7.3-7.4.4-11.2.4-3.9 0-7.6-.1-11.2-.4-2.2-3.2-4.2-6.4-6-9.6-1.9-3.3-3.7-6.7-5.3-10 1.6-3.3 3.4-6.7 5.3-10 1.8-3.2 3.9-6.4 6.1-9.6 3.7-.3 7.4-.4 11.2-.4 3.9 0 7.6.1 11.2.4 2.2 3.2 4.2 6.4 6 9.6 1.9 3.3 3.7 6.7 5.3 10-1.7 3.3-3.4 6.6-5.3 10zm8.3-3.3c1.5 3.5 2.7 6.9 3.8 10.3-3.4.8-7 1.4-10.8 1.9 1.2-1.9 2.5-3.9 3.6-6 1.2-2.1 2.3-4.2 3.4-6.2zM64 97.8c-2.4-2.6-4.7-5.4-6.9-8.3 2.3.1 4.6.2 6.9.2 2.3 0 4.6-.1 6.9-.2-2.2 2.9-4.5 5.7-6.9 8.3zm-18.6-15c-3.8-.5-7.4-1.1-10.8-1.9 1.1-3.3 2.3-6.8 3.8-10.3 1.1 2 2.2 4.1 3.4 6.1 1.2 2.2 2.4 4.1 3.6 6.1zm-7-25.5c-1.5-3.5-2.7-6.9-3.8-10.3 3.4-.8 7-1.4 10.8-1.9-1.2 1.9-2.5 3.9-3.6 6-1.2 2.1-2.3 4.2-3.4 6.2zM64 30.2c2.4 2.6 4.7 5.4 6.9 8.3-2.3-.1-4.6-.2-6.9-.2-2.3 0-4.6.1-6.9.2 2.2-2.9 4.5-5.7 6.9-8.3zm22.2 21l-3.6-6c3.8.5 7.4 1.1 10.8 1.9-1.1 3.3-2.3 6.8-3.8 10.3-1.1-2.1-2.2-4.2-3.4-6.2zM31.7 35c-1.7-10.5-.3-17.9 3.8-20.3 1-.6 2.2-.9 3.5-.9 6 0 13.5 4.9 21 12.3-3.5 3.8-7 8.2-10.4 13-5.8.5-11.3 1.4-16.5 2.5-.6-2.3-1-4.5-1.4-6.6zM7 64c0-4.7 5.7-9.7 15.7-13.4 2-.8 4.2-1.5 6.4-2.1 1.6 5 3.6 10.3 6 15.6-2.4 5.3-4.5 10.5-6 15.5C15.3 75.6 7 69.6 7 64zm28.5 49.3c-4.1-2.4-5.5-9.8-3.8-20.3.3-2.1.8-4.3 1.4-6.6 5.2 1.2 10.7 2 16.5 2.5 3.4 4.8 6.9 9.1 10.4 13-7.4 7.3-14.9 12.3-21 12.3-1.3 0-2.5-.3-3.5-.9zM96.3 93c1.7 10.5.3 17.9-3.8 20.3-1 .6-2.2.9-3.5.9-6 0-13.5-4.9-21-12.3 3.5-3.8 7-8.2 10.4-13 5.8-.5 11.3-1.4 16.5-2.5.6 2.3 1 4.5 1.4 6.6zm9-15.6c-2 .8-4.2 1.5-6.4 2.1-1.6-5-3.6-10.3-6-15.6 2.4-5.3 4.5-10.5 6-15.5 13.8 4 22.1 10 22.1 15.6 0 4.7-5.8 9.7-15.7 13.4z"/>
      </g>
    </symbol>

    <!-- Node.js Icon -->
    <symbol id="nodejs" viewBox="0 0 128 128">
      <g fill="#339933">
<path fill="#83CD29" d="M112.771 30.334L68.674 4.729c-2.781-1.584-6.402-1.584-9.205 0L14.901 30.334C12.031 31.985 10 35.088 10 38.407v51.142c0 3.319 2.084 6.423 4.954 8.083l11.775 6.688c5.628 2.772 7.617 2.772 10.178 2.772 8.333 0 13.093-5.039 13.093-13.828v-50.49c0-.713-.371-1.774-1.071-1.774h-5.623C42.594 41 41 42.061 41 42.773v50.49c0 3.896-3.524 7.773-10.11 4.48L18.723 90.73c-.424-.23-.723-.693-.723-1.181V38.407c0-.482.555-.966.982-1.213l44.424-25.561c.415-.235 1.025-.235 1.439 0l43.882 25.555c.42.253.272.722.272 1.219v51.142c0 .488.183.963-.232 1.198l-44.086 25.576c-.378.227-.847.227-1.261 0l-11.307-6.749c-.341-.198-.746-.269-1.073-.086-3.146 1.783-3.726 2.02-6.677 3.043-.726.253-1.797.692.41 1.929l14.798 8.754a9.294 9.294 0 004.647 1.246c1.642 0 3.25-.426 4.667-1.246l43.885-25.582c2.87-1.672 4.23-4.764 4.23-8.083V38.407c0-3.319-1.36-6.414-4.229-8.073zM77.91 81.445c-11.726 0-14.309-3.235-15.17-9.066-.1-.628-.633-1.379-1.272-1.379h-5.731c-.709 0-1.279.86-1.279 1.566 0 7.466 4.059 16.512 23.453 16.512 14.039 0 22.088-5.455 22.088-15.109 0-9.572-6.467-12.084-20.082-13.886-13.762-1.819-15.16-2.738-15.16-5.962 0-2.658 1.184-6.203 11.374-6.203 9.105 0 12.461 1.954 13.842 8.091.118.577.645.991 1.24.991h5.754c.354 0 .692-.143.94-.396.24-.272.367-.613.335-.979-.891-10.568-7.912-15.493-22.112-15.493-12.631 0-20.166 5.334-20.166 14.275 0 9.698 7.497 12.378 19.622 13.577 14.505 1.422 15.633 3.542 15.633 6.395 0 4.955-3.978 7.066-13.309 7.066z"/>
      </g>
    </symbol>

    <!-- Git Icon -->
    <symbol id="git" viewBox="0 0 128 128">
      <path fill="#F34F29" d="M124.737 58.378L69.621 3.264c-3.172-3.174-8.32-3.174-11.497 0L46.68 14.71l14.518 14.518c3.375-1.139 7.243-.375 9.932 2.314 2.703 2.706 3.461 6.607 2.294 9.993l13.992 13.993c3.385-1.167 7.292-.413 9.994 2.295 3.78 3.777 3.78 9.9 0 13.679a9.673 9.673 0 01-13.683 0 9.677 9.677 0 01-2.105-10.521L68.574 47.933l-.002 34.341a9.708 9.708 0 012.559 1.828c3.778 3.777 3.778 9.898 0 13.683-3.779 3.777-9.904 3.777-13.679 0-3.778-3.784-3.778-9.905 0-13.683a9.65 9.65 0 013.167-2.11V47.333a9.581 9.581 0 01-3.167-2.111c-2.862-2.86-3.551-7.06-2.083-10.576L41.056 20.333 3.264 58.123a8.133 8.133 0 000 11.5l55.117 55.114c3.174 3.174 8.32 3.174 11.499 0l54.858-54.858a8.135 8.135 0 00-.001-11.501z"/>
    </symbol>



    <!-- Git Icon -->
    <symbol id="git" viewBox="0 0 128 128">
      <path fill="#F34F29" d="M124.737 58.378L69.621 3.264c-3.172-3.174-8.32-3.174-11.497 0L46.68 14.71l14.518 14.518c3.375-1.139 7.243-.375 9.932 2.314 2.703 2.706 3.461 6.607 2.294 9.993l13.992 13.993c3.385-1.167 7.292-.413 9.994 2.295 3.78 3.777 3.78 9.9 0 13.679a9.673 9.673 0 01-13.683 0 9.677 9.677 0 01-2.105-10.521L68.574 47.933l-.002 34.341a9.708 9.708 0 012.559 1.828c3.778 3.777 3.778 9.898 0 13.683-3.779 3.777-9.904 3.777-13.679 0-3.778-3.784-3.778-9.905 0-13.683a9.65 9.65 0 013.167-2.11V47.333a9.581 9.581 0 01-3.167-2.111c-2.862-2.86-3.551-7.06-2.083-10.576L41.056 20.333 3.264 58.123a8.133 8.133 0 000 11.5l55.117 55.114c3.174 3.174 8.32 3.174 11.499 0l54.858-54.858a8.135 8.135 0 00-.001-11.501z"/>
    </symbol>




    <!-- Express Icon -->
    <symbol id="express" viewBox="0 0 128 128">
      <path fill="#F34F29" d="M124.737 58.378L69.621 3.264c-3.172-3.174-8.32-3.174-11.497 0L46.68 14.71l14.518 14.518c3.375-1.139 7.243-.375 9.932 2.314 2.703 2.706 3.461 6.607 2.294 9.993l13.992 13.993c3.385-1.167 7.292-.413 9.994 2.295 3.78 3.777 3.78 9.9 0 13.679a9.673 9.673 0 01-13.683 0 9.677 9.677 0 01-2.105-10.521L68.574 47.933l-.002 34.341a9.708 9.708 0 012.559 1.828c3.778 3.777 3.778 9.898 0 13.683-3.779 3.777-9.904 3.777-13.679 0-3.778-3.784-3.778-9.905 0-13.683a9.65 9.65 0 013.167-2.11V47.333a9.581 9.581 0 01-3.167-2.111c-2.862-2.86-3.551-7.06-2.083-10.576L41.056 20.333 3.264 58.123a8.133 8.133 0 000 11.5l55.117 55.114c3.174 3.174 8.32 3.174 11.499 0l54.858-54.858a8.135 8.135 0 00-.001-11.501z"/>
    </symbol>

    <!-- Material Icon -->
    <symbol id="mui" viewBox="0 0 128 128">
<path fill="#1FA6CA" d="M.2 68.6V13.4L48 41v18.4L16.1 41v36.8L.2 68.6z"/><path fill="#1C7FB6" d="M48 41l47.9-27.6v55.3L64 87l-16-9.2 32-18.4V41L48 59.4V41z"/><path fill="#1FA6CA" d="M48 77.8v18.4l32 18.4V96.2L48 77.8z"/><path fill="#1C7FB6" d="M80 114.6L127.8 87V50.2l-16 9.2v18.4L80 96.2v18.4zM111.9 41V22.6l16-9.2v18.4l-16 9.2z"/>
    </symbol>

    <!-- Vercel Icon -->
    <symbol id="vercel" viewBox="0 0 128 128">
<path style="fill-rule:nonzero;fill:#000;fill-opacity:1" d="M63.984 17.184 127.964 128H0Zm0 0"/>
    </symbol>




    <symbol id="flowbite" viewBox="0 0 128 128">
<defs><linearGradient id="bamboo-original-a" gradientUnits="userSpaceOnUse" x1="11.217" y1="7.486" x2="11.217" y2="21.607" gradientTransform="scale(4)"><stop offset="0" stop-color="#0052cc"/><stop offset="1" stop-color="#2684ff"/></linearGradient><linearGradient id="bamboo-original-b" gradientUnits="userSpaceOnUse" x1="11.168" y1="7.486" x2="11.168" y2="21.607" gradientTransform="scale(4)"><stop offset="0" stop-color="#0052cc"/><stop offset="1" stop-color="#2684ff"/></linearGradient></defs><path d="M104.133 70.633h-20c-1.235 0-2.465.96-2.602 2.191-1.097 7.946-7.945 14.11-16.164 14.11l5.344 24.656c19.45-2.602 34.652-18.492 36.023-38.219.137-1.504-1.097-2.738-2.601-2.738zm0 0M69.746 69.95l28.766-24.657c1.234-1.098 1.234-2.879 0-3.973L69.746 16.664c-1.644-1.508-4.246-.273-4.246 1.918v49.313c-.137 2.328 2.465 3.562 4.246 2.054zm0 0" fill="#2684ff"/><path d="M24.273 75.977C26.88 96.247 44.273 112 65.367 112V86.934c-9.039 0-16.437-7.262-16.437-16.301zm0 0" fill="url(#bamboo-original-a)"/><path d="M24 70.223v.41h25.066c0-9.04 7.399-16.301 16.438-16.301L60.16 29.676C39.89 32.28 24.137 49.402 24 70.223zm0 0" fill="url(#bamboo-original-b)"/>
    </symbol>

    <!-- Material Icon -->
    <symbol id="shadcn" viewBox="0 0 128 128">
  <path style="fill:#21cfee;fill-opacity:1;fill-rule:nonzero;stroke:none" d="M49.2 16.11c5.597-9.614 18.14-13.2 28.015-8.016 9.875 5.187 13.344 17.183 7.75 26.793L47.075 99.96c-5.598 9.61-18.141 13.2-28.016 8.012-9.875-5.184-13.344-17.18-7.75-26.793zm0 0" transform="translate(19.77 -2.127) scale(.7311)"/>
  <path style="fill:#173aee;fill-opacity:1;fill-rule:nonzero;stroke:none" d="M77.992 80.516c5.598-9.614 18.14-13.2 28.016-8.016 9.875 5.188 13.344 17.184 7.75 26.793l-37.89 65.074c-5.598 9.61-18.141 13.2-28.016 8.012-9.875-5.184-13.348-17.18-7.75-26.793zm0 0" transform="translate(19.77 -2.127) scale(.7311)"/>

    </symbol>



    <!-- Bootstrap Icon -->
    <symbol id="bootstrap" viewBox="0 0 128 128">
<defs><linearGradient id="a" x1="76.079" x2="523.48" y1="10.798" y2="365.95" gradientTransform="translate(1.11 14.613) scale(.24566)" gradientUnits="userSpaceOnUse"><stop offset="0" stop-color="#9013fe"/><stop offset="1" stop-color="#6610f2"/></linearGradient><linearGradient id="b" x1="193.51" x2="293.51" y1="109.74" y2="278.87" gradientTransform="translate(0 52)" gradientUnits="userSpaceOnUse"><stop offset="0" stop-color="#fff"/><stop offset="1" stop-color="#f1e5fc"/></linearGradient><filter id="c" width="197" height="249" x="161.9" y="135.46" color-interpolation-filters="sRGB" filterUnits="userSpaceOnUse"><feFlood flood-opacity="0" result="BackgroundImageFix"/><feColorMatrix in="SourceAlpha" values="0 0 0 0 0 0 0 0 0 0 0 0 0 0 0 0 0 0 127 0"/><feOffset dy="4"/><feGaussianBlur stdDeviation="8"/><feColorMatrix values="0 0 0 0 0 0 0 0 0 0 0 0 0 0 0 0 0 0 0.15 0"/><feBlend in2="BackgroundImageFix" result="effect1_dropShadow"/><feBlend in="SourceGraphic" in2="effect1_dropShadow" result="shape"/></filter></defs><path fill="url(#a)" d="M14.985 27.712c-.237-6.815 5.072-13.099 12.249-13.099h73.54c7.177 0 12.486 6.284 12.249 13.099-.228 6.546.068 15.026 2.202 21.94 2.141 6.936 5.751 11.319 11.664 11.883v6.387c-5.913.564-9.523 4.947-11.664 11.883-2.134 6.914-2.43 15.394-2.202 21.94.237 6.815-5.072 13.098-12.249 13.098h-73.54c-7.177 0-12.486-6.284-12.249-13.098.228-6.546-.068-15.026-2.203-21.94-2.14-6.935-5.76-11.319-11.673-11.883v-6.387c5.913-.563 9.533-4.947 11.673-11.883 2.135-6.914 2.43-15.394 2.203-21.94z"/><path fill="url(#b)" d="M267.1 364.46c47.297 0 75.798-23.158 75.798-61.355 0-28.873-20.336-49.776-50.532-53.085v-1.203c22.185-3.609 39.594-24.211 39.594-47.219 0-32.783-25.882-54.138-65.322-54.138h-88.74v217zm-54.692-189.48h45.911c24.958 0 39.131 11.128 39.131 31.279 0 21.505-16.484 33.535-46.372 33.535h-38.67zm0 161.96v-71.431h45.602c32.661 0 49.608 12.03 49.608 35.49 0 23.459-16.484 35.941-47.605 35.941z" filter="url(#c)" transform="translate(1.494 2.203) scale(.24566)"/>
    </symbol>



    <!-- Tailwindcss Icon -->
    <symbol id="tailwind" viewBox="0 0 128 128">
<path d="M64.004 25.602c-17.067 0-27.73 8.53-32 25.597 6.398-8.531 13.867-11.73 22.398-9.597 4.871 1.214 8.352 4.746 12.207 8.66C72.883 56.629 80.145 64 96.004 64c17.066 0 27.73-8.531 32-25.602-6.399 8.536-13.867 11.735-22.399 9.602-4.87-1.215-8.347-4.746-12.207-8.66-6.27-6.367-13.53-13.738-29.394-13.738zM32.004 64c-17.066 0-27.73 8.531-32 25.602C6.402 81.066 13.87 77.867 22.402 80c4.871 1.215 8.352 4.746 12.207 8.66 6.274 6.367 13.536 13.738 29.395 13.738 17.066 0 27.73-8.53 32-25.597-6.399 8.531-13.867 11.73-22.399 9.597-4.87-1.214-8.347-4.746-12.207-8.66C55.128 71.371 47.868 64 32.004 64zm0 0" fill="#38bdf8"/>
    </symbol>


    <!-- SQL Icon -->
    <symbol id="sql" viewBox="0 0 128 128">
      <path fill="#00618A" d="M116.948 97.807c-6.863-.187-12.104.452-16.585 2.341-1.273.537-3.305.552-3.513 2.147.7.733.809 1.829 1.365 2.731 1.07 1.73 2.876 4.052 4.488 5.268 1.762 1.33 3.577 2.751 5.465 3.902 3.358 2.047 7.107 3.217 10.34 5.268 1.906 1.21 3.799 2.733 5.658 4.097.92.675 1.537 1.724 2.732 2.147v-.194c-.628-.8-.79-1.898-1.366-2.733l-2.537-2.537c-2.48-3.292-5.629-6.184-8.976-8.585-2.669-1.916-8.642-4.504-9.755-7.609l-.195-.195c1.892-.214 4.107-.898 5.854-1.367 2.934-.786 5.556-.583 8.585-1.365l4.097-1.171v-.78c-1.531-1.571-2.623-3.651-4.292-5.073-4.37-3.72-9.138-7.437-14.048-10.537-2.724-1.718-6.089-2.835-8.976-4.292-.971-.491-2.677-.746-3.318-1.562-1.517-1.932-2.342-4.382-3.511-6.633-2.449-4.717-4.854-9.868-7.024-14.831-1.48-3.384-2.447-6.72-4.293-9.756-8.86-14.567-18.396-23.358-33.169-32-3.144-1.838-6.929-2.563-10.929-3.513-2.145-.129-4.292-.26-6.438-.391-1.311-.546-2.673-2.149-3.902-2.927C17.811 4.565 5.257-2.16 1.633 6.682c-2.289 5.581 3.421 11.025 5.462 13.854 1.434 1.982 3.269 4.207 4.293 6.438.674 1.467.79 2.938 1.367 4.489 1.417 3.822 2.652 7.98 4.487 11.511.927 1.788 1.949 3.67 3.122 5.268.718.981 1.951 1.413 2.145 2.927-1.204 1.686-1.273 4.304-1.95 6.44-3.05 9.615-1.899 21.567 2.537 28.683 1.36 2.186 4.567 6.871 8.975 5.073 3.856-1.57 2.995-6.438 4.098-10.732.249-.973.096-1.689.585-2.341v.195l3.513 7.024c2.6 4.187 7.212 8.562 11.122 11.514 2.027 1.531 3.623 4.177 6.244 5.073v-.196h-.195c-.508-.791-1.303-1.119-1.951-1.755-1.527-1.497-3.225-3.358-4.487-5.073-3.556-4.827-6.698-10.11-9.561-15.609-1.368-2.627-2.557-5.523-3.709-8.196-.444-1.03-.438-2.589-1.364-3.122-1.263 1.958-3.122 3.542-4.098 5.854-1.561 3.696-1.762 8.204-2.341 12.878-.342.122-.19.038-.391.194-2.718-.655-3.672-3.452-4.683-5.853-2.554-6.07-3.029-15.842-.781-22.829.582-1.809 3.21-7.501 2.146-9.172-.508-1.666-2.184-2.63-3.121-3.903-1.161-1.574-2.319-3.646-3.124-5.464-2.09-4.731-3.066-10.044-5.267-14.828-1.053-2.287-2.832-4.602-4.293-6.634-1.617-2.253-3.429-3.912-4.683-6.635-.446-.968-1.051-2.518-.391-3.513.21-.671.508-.951 1.171-1.17 1.132-.873 4.284.29 5.462.779 3.129 1.3 5.741 2.538 8.392 4.294 1.271.844 2.559 2.475 4.097 2.927h1.756c2.747.631 5.824.195 8.391.975 4.536 1.378 8.601 3.523 12.292 5.854 11.246 7.102 20.442 17.21 26.732 29.269 1.012 1.942 1.45 3.794 2.341 5.854 1.798 4.153 4.063 8.426 5.852 12.488 1.786 4.052 3.526 8.141 6.05 11.513 1.327 1.772 6.451 2.723 8.781 3.708 1.632.689 4.307 1.409 5.854 2.34 2.953 1.782 5.815 3.903 8.586 5.855 1.383.975 5.64 3.116 5.852 4.879zM29.729 23.466c-1.431-.027-2.443.156-3.513.389v.195h.195c.683 1.402 1.888 2.306 2.731 3.513.65 1.367 1.301 2.732 1.952 4.097l.194-.193c1.209-.853 1.762-2.214 1.755-4.294-.484-.509-.555-1.147-.975-1.755-.556-.811-1.635-1.272-2.339-1.952z"/>
    </symbol>




    <!--Laravel Icon -->
    <symbol id="laravel" viewBox="0 0 128 128">
<g id="surface1">
<path style=" stroke:none;fill-rule:nonzero;fill:rgb(94.117647%,32.54902%,25.098039%);fill-opacity:1;" d="M 26.027344 0.136719 C 25.824219 0.214844 20.085938 3.484375 13.28125 7.394531 C 5.035156 12.136719 0.800781 14.632812 0.574219 14.867188 C 0.394531 15.070312 0.191406 15.421875 0.128906 15.644531 C -0.0429688 16.21875 -0.0546875 100.347656 0.117188 100.953125 C 0.179688 101.1875 0.382812 101.53125 0.566406 101.722656 C 1.011719 102.191406 50.238281 130.496094 50.835938 130.632812 C 51.113281 130.699219 51.425781 130.6875 51.734375 130.601562 C 52.40625 130.433594 101.503906 102.191406 101.941406 101.730469 C 102.121094 101.53125 102.324219 101.1875 102.390625 100.953125 C 102.476562 100.675781 102.507812 96.277344 102.507812 87.015625 L 102.507812 73.480469 L 114.476562 66.605469 C 125.761719 60.117188 126.453125 59.710938 126.742188 59.265625 L 127.039062 58.785156 L 127.039062 44.207031 C 127.039062 28.335938 127.070312 29.230469 126.441406 28.65625 C 126.273438 28.507812 120.523438 25.152344 113.652344 21.195312 L 101.171875 14.015625 L 99.785156 14.015625 L 87.574219 21.027344 C 80.851562 24.894531 75.136719 28.199219 74.859375 28.378906 C 74.582031 28.5625 74.25 28.902344 74.113281 29.148438 L 73.867188 29.574219 L 73.8125 43.308594 L 73.761719 57.046875 L 63.679688 62.855469 C 58.132812 66.042969 53.515625 68.683594 53.417969 68.707031 C 53.238281 68.757812 53.226562 67.449219 53.226562 42.203125 L 53.226562 15.632812 L 52.960938 15.175781 C 52.628906 14.621094 54.121094 15.507812 39.136719 6.894531 C 26.570312 -0.332031 26.871094 -0.179688 26.027344 0.136719 Z M 37.578125 10.65625 C 42.835938 13.671875 47.136719 16.167969 47.136719 16.199219 C 47.136719 16.230469 42.527344 18.894531 36.894531 22.132812 L 26.644531 28.015625 L 16.414062 22.132812 C 10.792969 18.894531 6.1875 16.230469 6.1875 16.199219 C 6.1875 16.167969 10.785156 13.503906 16.40625 10.273438 L 26.613281 4.402344 L 27.316406 4.785156 C 27.710938 5 32.332031 7.640625 37.578125 10.65625 Z M 110.730469 24.191406 C 116.265625 27.378906 120.84375 30.011719 120.886719 30.054688 C 121.003906 30.160156 100.703125 41.828125 100.425781 41.816406 C 100.148438 41.808594 80.097656 30.246094 80.105469 30.105469 C 80.117188 29.945312 100.289062 18.339844 100.492188 18.371094 C 100.585938 18.394531 105.195312 21.015625 110.730469 24.191406 Z M 14.828125 25.875 L 24.585938 31.492188 L 24.640625 59.304688 L 24.691406 87.121094 L 24.929688 87.496094 C 25.054688 87.695312 25.289062 87.964844 25.460938 88.089844 C 25.621094 88.207031 31.050781 91.300781 37.523438 94.953125 L 49.28125 101.59375 L 49.28125 113.359375 C 49.28125 119.816406 49.238281 125.113281 49.183594 125.113281 C 49.140625 125.113281 38.976562 119.296875 26.601562 112.175781 L 4.105469 99.238281 L 4.074219 59.464844 L 4.054688 19.703125 L 4.554688 19.980469 C 4.84375 20.132812 9.460938 22.785156 14.828125 25.875 Z M 49.28125 45.453125 L 49.28125 71.082031 L 48.886719 71.339844 C 48.351562 71.679688 28.8125 82.910156 28.746094 82.910156 C 28.714844 82.910156 28.691406 71.339844 28.691406 57.195312 L 28.703125 31.492188 L 38.910156 25.621094 C 44.523438 22.390625 49.152344 19.769531 49.207031 19.789062 C 49.246094 19.8125 49.28125 31.363281 49.28125 45.453125 Z M 88.222656 39.558594 L 98.453125 45.441406 L 98.453125 57.101562 C 98.453125 68.164062 98.441406 68.757812 98.273438 68.695312 C 98.164062 68.652344 93.535156 66 87.980469 62.800781 L 77.867188 56.992188 L 77.867188 45.335938 C 77.867188 38.917969 77.898438 33.675781 77.929688 33.675781 C 77.972656 33.675781 82.601562 36.320312 88.222656 39.558594 Z M 123.09375 45.261719 C 123.09375 51.644531 123.050781 56.910156 123.007812 56.960938 C 122.933594 57.078125 102.699219 68.738281 102.570312 68.738281 C 102.539062 68.738281 102.507812 63.496094 102.507812 57.078125 L 102.507812 45.421875 L 112.714844 39.546875 C 118.335938 36.320312 122.964844 33.675781 123.007812 33.675781 C 123.0625 33.675781 123.09375 38.886719 123.09375 45.261719 Z M 86.230469 66.46875 C 94.835938 71.421875 96.320312 72.308594 96.171875 72.425781 C 96.074219 72.488281 92.8125 74.363281 88.929688 76.582031 C 85.046875 78.796875 74.988281 84.53125 66.570312 89.328125 L 51.273438 98.054688 L 50.785156 97.789062 C 47.863281 96.191406 30.910156 86.546875 30.910156 86.472656 C 30.902344 86.3125 75.765625 60.53125 75.945312 60.597656 C 76.03125 60.628906 80.660156 63.269531 86.230469 66.46875 Z M 98.433594 87.558594 L 98.398438 99.238281 L 75.914062 112.175781 C 63.542969 119.296875 53.375 125.113281 53.324219 125.113281 C 53.269531 125.113281 53.226562 120.359375 53.226562 113.359375 L 53.226562 101.59375 L 75.765625 88.742188 C 88.148438 81.675781 98.324219 75.890625 98.378906 75.878906 C 98.421875 75.878906 98.441406 81.132812 98.433594 87.558594 Z M 98.433594 87.558594 "/>
</g>
    </symbol>

    <!-- GitHub Icon -->
    <symbol id="github" viewBox="0 0 128 128">
      <g fill="#181616">
        <path fill-rule="evenodd" clip-rule="evenodd" d="M64 5.103c-33.347 0-60.388 27.035-60.388 60.388 0 26.682 17.303 49.317 41.297 57.303 3.017.56 4.125-1.31 4.125-2.905 0-1.44-.056-6.197-.082-11.243-16.8 3.653-20.345-7.125-20.345-7.125-2.747-6.98-6.705-8.836-6.705-8.836-5.48-3.748.413-3.67.413-3.67 6.063.425 9.257 6.223 9.257 6.223 5.386 9.23 14.127 6.562 17.573 5.02.542-3.903 2.107-6.568 3.834-8.076-13.413-1.525-27.514-6.704-27.514-29.843 0-6.593 2.36-11.98 6.223-16.21-.628-1.52-2.695-7.662.584-15.98 0 0 5.07-1.623 16.61 6.19C53.7 35 58.867 34.327 64 34.304c5.13.023 10.3.694 15.127 2.033 11.526-7.813 16.59-6.19 16.59-6.19 3.287 8.317 1.22 14.46.593 15.98 3.872 4.23 6.215 9.617 6.215 16.21 0 23.194-14.127 28.3-27.574 29.796 2.167 1.874 4.097 5.55 4.097 11.183 0 8.08-.07 14.583-.07 16.572 0 1.607 1.088 3.49 4.148 2.897 23.98-7.994 41.263-30.622 41.263-57.294C124.388 32.14 97.35 5.104 64 5.104z"/>
        <path d="M26.484 91.806c-.133.3-.605.39-1.035.185-.44-.196-.685-.605-.543-.906.13-.31.603-.395 1.04-.188.44.197.69.61.537.91zm2.446 2.729c-.287.267-.85.143-1.232-.28-.396-.42-.47-.983-.177-1.254.298-.266.844-.14 1.24.28.394.426.472.984.17 1.255zM31.312 98.012c-.37.258-.976.017-1.35-.52-.37-.538-.37-1.183.01-1.44.373-.258.97-.025 1.35.507.368.545.368 1.19-.01 1.452zm3.261 3.361c-.33.365-1.036.267-1.552-.23-.527-.487-.674-1.18-.343-1.544.336-.366 1.045-.264 1.564.23.527.486.686 1.18.333 1.543zm4.5 1.951c-.147.473-.825.688-1.51.486-.683-.207-1.13-.76-.99-1.238.14-.477.823-.7 1.512-.485.683.206 1.13.756.988 1.237zm4.943.361c.017.498-.563.91-1.28.92-.723.017-1.308-.387-1.315-.877 0-.503.568-.91 1.29-.924.717-.013 1.306.387 1.306.88zm4.598-.782c.086.485-.413.984-1.126 1.117-.7.13-1.35-.172-1.44-.653-.086-.498.422-.997 1.122-1.126.714-.123 1.354.17 1.444.663zm0 0"/>
      </g>
    </symbol>

    <!-- TypeScript Icon -->
    <symbol id="typescript" viewBox="0 0 128 128">
      <path fill="#fff" d="M22.67 47h99.67v73.67H22.67z"/>
      <path fill="#007acc" d="M1.5 63.91v62.5h125v-125H1.5zm100.73-5a15.56 15.56 0 017.82 4.5 20.58 20.58 0 013 4c0 .16-5.4 3.81-8.69 5.85-.12.08-.6-.44-1.13-1.23a7.09 7.09 0 00-5.87-3.53c-3.79-.26-6.23 1.73-6.21 5a4.58 4.58 0 00.54 2.34c.83 1.73 2.38 2.76 7.24 4.86 8.95 3.85 12.78 6.39 15.16 10 2.66 4 3.25 10.46 1.45 15.24-2 5.2-6.9 8.73-13.83 9.9a38.32 38.32 0 01-9.52-.1 23 23 0 01-12.72-6.63c-1.15-1.27-3.39-4.58-3.25-4.82a9.34 9.34 0 011.15-.73L82 101l3.59-2.08.75 1.11a16.78 16.78 0 004.74 4.54c4 2.1 9.46 1.81 12.16-.62a5.43 5.43 0 00.69-6.92c-1-1.39-3-2.56-8.59-5-6.45-2.78-9.23-4.5-11.77-7.24a16.48 16.48 0 01-3.43-6.25 25 25 0 01-.22-8c1.33-6.23 6-10.58 12.82-11.87a31.66 31.66 0 019.49.26zm-29.34 5.24v5.12H56.66v46.23H45.15V69.26H28.88v-5a49.19 49.19 0 01.12-5.17C29.08 59 39 59 51 59h21.83z"/>
    </symbol>

    <!-- MongoDB Icon -->
    <symbol id="mongodb" viewBox="0 0 128 128">
      <path fill-rule="evenodd" clip-rule="evenodd" fill="#439934" d="M88.038 42.812c1.605 4.643 2.761 9.383 3.141 14.296.472 6.095.256 12.147-1.029 18.142-.035.165-.109.32-.164.48-.403.001-.814-.049-1.208.012-3.329.523-6.655 1.065-9.981 1.604-3.438.557-6.881 1.092-10.313 1.687-1.216.21-2.721-.041-3.212 1.641-.014.046-.154.054-.235.08l.166-10.051-.169-24.252 1.602-.275c2.62-.429 5.24-.864 7.862-1.281 3.129-.497 6.261-.98 9.392-1.465 1.381-.215 2.764-.412 4.148-.618z"/>
      <path fill-rule="evenodd" clip-rule="evenodd" fill="#45A538" d="M61.729 110.054c-1.69-1.453-3.439-2.842-5.059-4.37-8.717-8.222-15.093-17.899-18.233-29.566-.865-3.211-1.442-6.474-1.627-9.792-.13-2.322-.318-4.665-.154-6.975.437-6.144 1.325-12.229 3.127-18.147l.099-.138c.175.233.427.439.516.702 1.759 5.18 3.505 10.364 5.242 15.551 5.458 16.3 10.909 32.604 16.376 48.9.107.318.384.579.583.866l-.87 2.969z"/>
      <path fill-rule="evenodd" clip-rule="evenodd" fill="#46A037" d="M88.038 42.812c-1.384.206-2.768.403-4.149.616-3.131.485-6.263.968-9.392 1.465-2.622.417-5.242.852-7.862 1.281l-1.602.275-.012-1.045c-.053-.859-.144-1.717-.154-2.576-.069-5.478-.112-10.956-.18-16.434-.042-3.429-.105-6.857-.175-10.285-.043-2.13-.089-4.261-.185-6.388-.052-1.143-.236-2.28-.311-3.423-.042-.657.016-1.319.029-1.979.817 1.583 1.616 3.178 2.456 4.749 1.327 2.484 3.441 4.314 5.344 6.311 7.523 7.892 12.864 17.068 16.193 27.433z"/>
      <path fill-rule="evenodd" clip-rule="evenodd" fill="#409433" d="M65.036 80.753c.081-.026.222-.034.235-.08.491-1.682 1.996-1.431 3.212-1.641 3.432-.594 6.875-1.13 10.313-1.687 3.326-.539 6.652-1.081 9.981-1.604.394-.062.805-.011 1.208-.012-.622 2.22-1.112 4.488-1.901 6.647-.896 2.449-1.98 4.839-3.131 7.182a49.142 49.142 0 01-6.353 9.763c-1.919 2.308-4.058 4.441-6.202 6.548-1.185 1.165-2.582 2.114-3.882 3.161l-.337-.23-1.214-1.038-1.256-2.753a41.402 41.402 0 01-1.394-9.838l.023-.561.171-2.426c.057-.828.133-1.655.168-2.485.129-2.982.241-5.964.359-8.946z"/>
      <path fill-rule="evenodd" clip-rule="evenodd" fill="#4FAA41" d="M65.036 80.753c-.118 2.982-.23 5.964-.357 8.947-.035.83-.111 1.657-.168 2.485l-.765.289c-1.699-5.002-3.399-9.951-5.062-14.913-2.75-8.209-5.467-16.431-8.213-24.642a4498.887 4498.887 0 00-6.7-19.867c-.105-.31-.407-.552-.617-.826l4.896-9.002c.168.292.39.565.496.879a6167.476 6167.476 0 016.768 20.118c2.916 8.73 5.814 17.467 8.728 26.198.116.349.308.671.491 1.062l.67-.78-.167 10.052z"/>
      <path fill-rule="evenodd" clip-rule="evenodd" fill="#4AA73C" d="M43.155 32.227c.21.274.511.516.617.826a4498.887 4498.887 0 016.7 19.867c2.746 8.211 5.463 16.433 8.213 24.642 1.662 4.961 3.362 9.911 5.062 14.913l.765-.289-.171 2.426-.155.559c-.266 2.656-.49 5.318-.814 7.968-.163 1.328-.509 2.632-.772 3.947-.198-.287-.476-.548-.583-.866-5.467-16.297-10.918-32.6-16.376-48.9a3888.972 3888.972 0 00-5.242-15.551c-.089-.263-.34-.469-.516-.702l3.272-8.84z"/>
      <path fill-rule="evenodd" clip-rule="evenodd" fill="#57AE47" d="M65.202 70.702l-.67.78c-.183-.391-.375-.714-.491-1.062-2.913-8.731-5.812-17.468-8.728-26.198a6167.476 6167.476 0 00-6.768-20.118c-.105-.314-.327-.588-.496-.879l6.055-7.965c.191.255.463.482.562.769 1.681 4.921 3.347 9.848 5.003 14.778 1.547 4.604 3.071 9.215 4.636 13.813.105.308.47.526.714.786l.012 1.045c.058 8.082.115 16.167.171 24.251z"/>
      <path fill-rule="evenodd" clip-rule="evenodd" fill="#60B24F" d="M65.021 45.404c-.244-.26-.609-.478-.714-.786-1.565-4.598-3.089-9.209-4.636-13.813-1.656-4.93-3.322-9.856-5.003-14.778-.099-.287-.371-.514-.562-.769 1.969-1.928 3.877-3.925 5.925-5.764 1.821-1.634 3.285-3.386 3.352-5.968.003-.107.059-.214.145-.514l.519 1.306c-.013.661-.072 1.322-.029 1.979.075 1.143.259 2.28.311 3.423.096 2.127.142 4.258.185 6.388.069 3.428.132 6.856.175 10.285.067 5.478.111 10.956.18 16.434.008.861.098 1.718.152 2.577z"/>
      <path fill-rule="evenodd" clip-rule="evenodd" fill="#A9AA88" d="M62.598 107.085c.263-1.315.609-2.62.772-3.947.325-2.649.548-5.312.814-7.968l.066-.01.066.011a41.402 41.402 0 001.394 9.838c-.176.232-.425.439-.518.701-.727 2.05-1.412 4.116-2.143 6.166-.1.28-.378.498-.574.744l-.747-2.566.87-2.969z"/>
      <path fill-rule="evenodd" clip-rule="evenodd" fill="#B6B598" d="M62.476 112.621c.196-.246.475-.464.574-.744.731-2.05 1.417-4.115 2.143-6.166.093-.262.341-.469.518-.701l1.255 2.754c-.248.352-.59.669-.728 1.061l-2.404 7.059c-.099.283-.437.483-.663.722l-.695-3.985z"/>
      <path fill-rule="evenodd" clip-rule="evenodd" fill="#C2C1A7" d="M63.171 116.605c.227-.238.564-.439.663-.722l2.404-7.059c.137-.391.48-.709.728-1.061l1.215 1.037c-.587.58-.913 1.25-.717 2.097l-.369 1.208c-.168.207-.411.387-.494.624-.839 2.403-1.64 4.819-2.485 7.222-.107.305-.404.544-.614.812-.109-1.387-.22-2.771-.331-4.158z"/>
      <path fill-rule="evenodd" clip-rule="evenodd" fill="#CECDB7" d="M63.503 120.763c.209-.269.506-.508.614-.812.845-2.402 1.646-4.818 2.485-7.222.083-.236.325-.417.494-.624l-.509 5.545c-.136.157-.333.294-.398.477-.575 1.614-1.117 3.24-1.694 4.854-.119.333-.347.627-.525.938-.158-.207-.441-.407-.454-.623-.051-.841-.016-1.688-.013-2.533z"/>
      <path fill-rule="evenodd" clip-rule="evenodd" fill="#DBDAC7" d="M63.969 123.919c.178-.312.406-.606.525-.938.578-1.613 1.119-3.239 1.694-4.854.065-.183.263-.319.398-.477l.012 3.64-1.218 3.124-1.411-.495z"/>
      <path fill-rule="evenodd" clip-rule="evenodd" fill="#EBE9DC" d="M65.38 124.415l1.218-3.124.251 3.696-1.469-.572z"/>
      <path fill-rule="evenodd" clip-rule="evenodd" fill="#CECDB7" d="M67.464 110.898c-.196-.847.129-1.518.717-2.097l.337.23-1.054 1.867z"/>
      <path fill-rule="evenodd" clip-rule="evenodd" fill="#4FAA41" d="M64.316 95.172l-.066-.011-.066.01.155-.559-.023.56z"/>
    </symbol>
  </defs>
</svg>