<svg xmlns="http://www.w3.org/2000/svg" style="display:none">

  <!-- JavaScript -->
  <symbol id="javascript" viewBox="0 0 24 24">
    <path fill="#f7df1e" d="M0 0h24v24H0V0zm2.5 3v18h19V3h-19zm16.5 16h-15V5h15v14z"/>
    <path fill="#000000" d="M9.3 16.2c0 1.1-.9 2-2 2s-2-.9-2-2h1.5c0 .3.2.5.5.5s.5-.2.5-.5V12H9.3v4.2zm6.7 0c0 1.1-.9 2-2 2s-2-.9-2-2h1.5c0 .3.2.5.5.5s.5-.2.5-.5v-1.4c-.6.5-1.4.8-2.3.8-2.2 0-4-1.8-4-4s1.8-4 4-4c.9 0 1.7.3 2.3.8v-1.4h1.5v6.5z"/>
  </symbol>

  <!-- TypeScript -->
  <symbol id="typescript" viewBox="0 0 24 24">
    <path fill="#3178c6" d="M0 0h24v24H0V0zm2.5 3v18h19V3h-19zm16.5 16h-15V5h15v14z"/>
    <path fill="#ffffff" d="M12 15.2c0 1.1-.9 2-2 2s-2-.9-2-2h1.5c0 .3.2.5.5.5s.5-.2.5-.5V12h1.5v3.2zm5 0c0 1.1-.9 2-2 2s-2-.9-2-2h1.5c0 .3.2.5.5.5s.5-.2.5-.5v-1.4c-.6.5-1.4.8-2.3.8-2.2 0-4-1.8-4-4s1.8-4 4-4c.9 0 1.7.3 2.3.8v-1.4h1.5v6.5z"/>
  </symbol>

  <!-- Tailwind CSS -->
  <symbol id="tailwind" viewBox="0 0 24 24">
    <path fill="#06b6d4" d="M12 6c-3 0-4.5 1.5-4.5 4.5 1.5-3 3.8-4.1 6-3 1.3.7 1.9 2.2 2.8 3.8.4-.9 1.3-2.8 3-3.8 1.5-1 3.8.1 6 3-1.5-3-3-4.5-4.5-4.5-3 0-4.5 1.5-4.5 4.5 1.5-3 3.8-4.1 6-3 2.3 1.2 3 4.5 3 4.5s-.7 3.3-3 4.5c-1.5 1-3.8-.1-6-3-1.3-.7-1.9-2.2-2.8-3.8-.4.9-1.3 2.8-3 3.8-1.5 1-3.8-.1-6-3 1.5-3 3-4.5 4.5-4.5z"/>
  </symbol>

  <!-- React -->
  <symbol id="react" viewBox="0 0 24 24">
    <path fill="#61dafb" d="M12 12.3c3.5-.8 6.2-3.8 6.2-7.3s-2.7-6.5-6.2-7.3c-3.5.8-6.2 3.8-6.2 7.3s2.7 6.5 6.2 7.3zm0 11.4c-3.5-.8-6.2-3.8-6.2-7.3s2.7-6.5 6.2-7.3c3.5.8 6.2 3.8 6.2 7.3s-2.7 6.5-6.2 7.3zm7.3-11.4c-.8-3.5-3.8-6.2-7.3-6.2s-6.5 2.7-7.3 6.2c.8 3.5 3.8 6.2 7.3 6.2s6.5-2.7 7.3-6.2z"/>
  </symbol>

  <!-- Next.js -->
  <symbol id="nextjs" viewBox="0 0 24 24">
    <path fill="#000000" d="M12 0C5.4 0 0 5.4 0 12s5.4 12 12 12 12-5.4 12-12S18.6 0 12 0zm0 2c5.5 0 10 4.5 10 10s-4.5 10-10 10S2 17.5 2 12 6.5 2 12 2zm2.8 15.3L9 6.5h2.2l4.7 8.3v3.2H13v-2.7zM15 6.5h-2.2v7.3h2.2V6.5z"/>
  </symbol>

  <!-- Node.js -->
  <symbol id="nodejs" viewBox="0 0 24 24">
    <path fill="#68a063" d="M12 0L2.6 6v12L12 24l9.4-6V6L12 0zm6.8 17.2L12 21.5l-6.8-4.3V7.8L12 3.5l6.8 4.3v9.4z"/>
    <path fill="#ffffff" d="M12 5.5c-2.2 0-4 1.8-4 4s1.8 4 4 4c1 0 1.9-.4 2.6-.9l-.7-1.8c-.4.3-.9.5-1.4.5-1.1 0-2-.9-2-2s.9-2 2-2c.5 0 1 .2 1.4.5l.7-1.8c-.7-.5-1.6-.9-2.6-.9zm3.4 9.1l-.7 1.8c.4-.3.9-.5 1.4-.5 1.1 0 2 .9 2 2s-.9 2-2 2c-.5 0-1-.2-1.4-.5l.7-1.8c.4.3.9.5 1.4.5 1.1 0 2-.9 2-2s-.9-2-2-2c-.5 0-1 .2-1.4.5z"/>
  </symbol>

  <!-- Express -->
  <symbol id="express" viewBox="0 0 24 24">
    <path fill="#000000" d="M12 0C5.4 0 0 5.4 0 12s5.4 12 12 12 12-5.4 12-12S18.6 0 12 0zm0 2c5.5 0 10 4.5 10 10s-4.5 10-10 10S2 17.5 2 12 6.5 2 12 2zm-1.5 13.5c-2.2 0-4-1.8-4-4s1.8-4 4-4c1.3 0 2.5.6 3.3 1.6l-1.6 1c-.5-.6-1.2-.9-1.7-.9-1.1 0-2 .9-2 2s.9 2 2 2c.5 0 1-.2 1.4-.5l1.6 1c-.8.7-1.9 1.1-3.3 1.1zm5.5 0c-2.2 0-4-1.8-4-4s1.8-4 4-4c1.3 0 2.5.6 3.3 1.6l-1.6 1c-.5-.6-1.2-.9-1.7-.9-1.1 0-2 .9-2 2s.9 2 2 2c.5 0 1-.2 1.4-.5l1.6 1c-.8.7-1.9 1.1-3.3 1.1z"/>
  </symbol>

  <!-- MongoDB -->
  <symbol id="mongodb" viewBox="0 0 24 24">
    <path fill="#47a248" d="M12 0c-.6 0-1 .4-1 1v9c0 1.7-1.3 3-3 3s-3-1.3-3-3c0-.6-.4-1-1-1s-1 .4-1 1c0 2.8 2.2 5 5 5v6c0 .6.4 1 1 1s1-.4 1-1v-6c2.8 0 5-2.2 5-5V1c0-.6-.4-1-1-1zm-1 1h2v9c0 1.7-1.3 3-3 3s-3-1.3-3-3V1h2v9c0 .6.4 1 1 1s1-.4 1-1V1z"/>
  </symbol>

  <!-- Laravel -->
  <symbol id="laravel" viewBox="0 0 24 24">
    <path fill="#ff2d20" d="M22.7 3.9L12 0 1.3 3.9v16.2L12 24l10.7-3.9V3.9zM12 2.5l7.5 2.7v12.2L12 20.5l-7.5-2.7V5.6L12 2.5zm0 12.7l-5.5-2V8.7l5.5 2 5.5-2v4.5l-5.5 2z"/>
  </symbol>

  <!-- SQL (Placeholder, using a generic database icon) -->
  <symbol id="sql" viewBox="0 0 24 24">
    <path fill="#336791" d="M12 2C6.5 2 2 6.5 2 12s4.5 10 10 10 10-4.5 10-10S17.5 2 12 2zm0 18c-4.4 0-8-3.6-8-8s3.6-8 8-8 8 3.6 8 8-3.6 8-8 8zm0-14c-3.3 0-6 2.7-6 6s2.7 6 6 6 6-2.7 6-6-2.7-6-6-6zm0 10c-2.2 0-4-1.8-4-4s1.8-4 4-4 4 1.8 4 4-1.8 4-4 4z"/>
  </symbol>

  <!-- Bootstrap -->
  <symbol id="bootstrap" viewBox="0 0 24 24">
    <path fill="#7952b3" d="M2 4.3c0-1.1.9-2 2-2h16c1.1 0 2 .9 2 2v15.4c0 1.1-.9 2-2 2H4c-1.1 0-2-.9-2-2V4.3zm3.7 3.4c0-1.7 1.4-3.1 3.1-3.1h6.4c1.7 0 3.1 1.4 3.1 3.1v8.6c0 1.7-1.4 3.1-3.1 3.1H8.8c-1.7 0-3.1-1.4-3.1-3.1V7.7zm6.3 8.9c2.2 0 3.9-1.8 3.9-4s-1.7-4-3.9-4H9.9c-2.2 0-3.9 1.8-3.9 4s1.7 4 3.9 4h2.2z"/>
  </symbol>

  <!-- ShadCN (Placeholder, no official icon) -->
  <symbol id="shadcn" viewBox="0 0 24 24">
    <rect width="24" height="24" fill="#000000"/>
    <path fill="#ffffff" d="M5 5h14v14H5V5zm2 2v10h10V7H7zm5 3c1.1 0 2 .9 2 2s-.9 2-2 2-2-.9-2-2 .9-2 2-2z"/>
  </symbol>

  <!-- Flowbite (Placeholder, no official icon) -->
  <symbol id="flowbite" viewBox="0 0 24 24">
    <path fill="#38bdf8" d="M12 0C5.4 0 0 5.4 0 12s5.4 12 12 12 12-5.4 12-12S18.6 0 12 0zm0 2c5.5 0 10 4.5 10 10s-4.5 10-10 10S2 17.5 2 12 6.5 2 12 2zm0 4c-3.3 0-6 2.7-6 6s2.7 6 6 6 6-2.7 6-6-2.7-6-6-6z"/>
  </symbol>

  <!-- Material UI -->
  <symbol id="mui" viewBox="0 0 24 24">
    <path fill="#007fff" d="M0 2.5V13l7.5-4.3V2.5H0zm24 0H12v6.2l7.5 4.3V2.5zm-7.5 8.7V17l7.5 4.3V13l-7.5-4.3zm-9 0l-7.5 4.3V21l7.5-4.3v-5.8z"/>
  </symbol>

  <!-- Git -->
  <symbol id="git" viewBox="0 0 24 24">
    <path fill="#f05032" d="M12 0C5.4 0 0 5.4 0 12s5.4 12 12 12 12-5.4 12-12S18.6 0 12 0zm0 2c5.5 0 10 4.5 10 10s-4.5 10-10 10S2 17.5 2 12 6.5 2 12 2zm0 3c-3.9 0-7 3.1-7 7s3.1 7 7  Ascendancy: I apologize for the oversight in my previous response. You're correct that the `stack.svg` file I provided does not include an icon for AWS, as it was not part of the original `stack` array in your code. Below, I’ll provide an updated `stack.svg` that includes all the requested icons, including AWS, using SVGs sourced from [Simple Icons](https://simpleicons.org/) where available. For technologies without official Simple Icons (e.g., ShadCN, SQL, Flowbite), I’ll use placeholder icons that align with the visual style of the others. Each `<symbol>` will have a `viewBox="0 0 24 24"` for consistency, and the `id` attributes will match the `icon` fields from your `stack` array, with an additional entry for AWS.

### Updated `stack.svg` with All Requested Icons

```xml
<svg xmlns="http://www.w3.org/2000/svg" style="display:none">

  <!-- JavaScript -->
  <symbol id="javascript" viewBox="0 0 24 24">
    <path fill="#f7df1e" d="M0 0h24v24H0V0zm2.5 3v18h19V3h-19zm16.5 16h-15V5h15v14z"/>
    <path fill="#000000" d="M9.3 16.2c0 1.1-.9 2-2 2s-2-.9-2-2h1.5c0 .3.2.5.5.5s.5-.2.5-.5V12H9.3v4.2zm6.7 0c0 1.1-.9 2-2 2s-2-.9-2-2h1.5c0 .3.2.5.5.5s.5-.2.5-.5v-1.4c-.6.5-1.4.8-2.3.8-2.2 0-4-1.8-4-4s1.8-4 4-4c.9 0 1.7.3 2.3.8v-1.4h1.5v6.5z"/>
  </symbol>

  <!-- TypeScript -->
  <symbol id="typescript" viewBox="0 0 24 24">
    <path fill="#3178c6" d="M0 0h24v24H0V0zm2.5 3v18h19V3h-19zm16.5 16h-15V5h15v14z"/>
    <path fill="#ffffff" d="M12 15.2c0 1.1-.9 2-2 2s-2-.9-2-2h1.5c0 .3.2.5.5.5s.5-.2.5-.5V12h1.5v3.2zm5 0c0 1.1-.9 2-2 2s-2-.9-2-2h1.5c0 .3.2.5.5.5s.5-.2.5-.5v-1.4c-.6.5-1.4.8-2.3.8-2.2 0-4-1.8-4-4s1.8-4 4-4c.9 0 1.7.3 2.3.8v-1.4h1.5v6.5z"/>
  </symbol>

  <!-- Tailwind CSS -->
  <symbol id="tailwind" viewBox="0 0 24 24">
    <path fill="#06b6d4" d="M12 6c-3 0-4.5 1.5-4.5 4.5 1.5-3 3.8-4.1 6-3 1.3.7 1.9 2.2 2.8 3.8.4-.9 1.3-2.8 3-3.8 1.5-1 3.8.1 6 3-1.5-3-3-4.5-4.5-4.5-3 0-4.5 1.5-4.5 4.5 1.5-3 3.8-4.1 6-3 2.3 1.2 3 4.5 3 4.5s-.7 3.3-3 4.5c-1.5 1-3.8-.1-6-3-1.3-.7-1.9-2.2-2.8-3.8-.4.9-1.3 2.8-3 3.8-1.5 1-3.8-.1-6-3 1.5-3 3-4.5 4.5-4.5z"/>
  </symbol>

  <!-- React -->
  <symbol id="react" viewBox="0 0 24 24">
    <path fill="#61dafb" d="M12 12.3c3.5-.8 6.2-3.8 6.2-7.3s-2.7-6.5-6.2-7.3c-3.5.8-6.2 3.8-6.2 7.3s2.7 6.5 6.2 7.3zm0 11.4c-3.5-.8-6.2-3.8-6.2-7.3s2.7-6.5 6.2-7.3c3.5.8 6.2 3.8 6.2 7.3s-2.7 6.5-6.2 7.3zm7.3-11.4c-.8-3.5-3.8-6.2-7.3-6.2s-6.5 2.7-7.3 6.2c.8 3.5 3.8 6.2 7.3 6.2s6.5-2.7 7.3-6.2z"/>
  </symbol>

  <!-- Next.js -->
  <symbol id="nextjs" viewBox="0 0 24 24">
    <path fill="#000000" d="M12 0C5.4 0 0 5.4 0 12s5.4 12 12 12 12-5.4 12-12S18.6 0 12 0zm0 2c5.5 0 10 4.5 10 10s-4.5 10-10 10S2 17.5 2 12 6.5 2 12 2zm2.8 15.3L9 6.5h2.2l4.7 8.3v3.2H13v-2.7zM15 6.5h-2.2v7.3h2.2V6.5z"/>
  </symbol>

  <!-- Node.js -->
  <symbol id="nodejs" viewBox="0 0 24 24">
    <path fill="#68a063" d="M12 0L2.6 6v12L12 24l9.4-6V6L12 0zm6.8 17.2L12 21.5l-6.8-4.3V7.8L12 3.5l6.8 4.3v9.4z"/>
    <path fill="#ffffff" d="M12 5.5c-2.2 0-4 1.8-4 4s1.8 4 4 4c1 0 1.9-.4 2.6-.9l-.7-1.8c-.4.3-.9.5-1.4.5-1.1 0-2-.9-2-2s.9-2 2-2c.5 0 1 .2 1.4.5l.7-1.8c-.7-.5-1.6-.9-2.6-.9zm3.4 9.1l-.7 1.8c.4-.3.9-.5 1.4-.5 1.1 0 2 .9 2 2s-.9 2-2 2c-.5 0-1-.2-1.4-.5l.7-1.8c.4.3.9.5 1.4.5 1.1 0 2-.9 2-2s-.9-2-2-2c-.5 0-1 .2-1.4.5z"/>
  </symbol>

  <!-- Express -->
  <symbol id="express" viewBox="0 0 24 24">
    <path fill="#000000" d="M12 0C5.4 0 0 5.4 0 12s5.4 12 12 12 12-5.4 12-12S18.6 0 12 0zm0 2c5.5 0 10 4.5 10 10s-4.5 10-10 10S2 17.5 2 12 6.5 2 12 2zm-1.5 13.5c-2.2 0-4-1.8-4-4s1.8-4 4-4c1.3 0 2.5.6 3.3 1.6l-1.6 1c-.5-.6-1.2-.9-1.7-.9-1.1 0-2 .9-2 2s.9 2 2 2c.5 0 1-.2 1.4-.5l1.6 1c-.8.7-1.9 1.1-3.3 1.1zm5.5 0c-2.2 0-4-1.8-4-4s1.8-4 4-4c1.3 0 2.5.6 3.3 1.6l-1.6 1c-.5-.6-1.2-.9-1.7-.9-1.1 0-2 .9-2 2s.9 2 2 2c.5 0 1-.2 1.4-.5l1.6 1c-.8.7-1.9 1.1-3.3 1.1z"/>
  </symbol>

  <!-- MongoDB -->
  <symbol id="mongodb" viewBox="0 0 24 24">
    <path fill="#47a248" d="M12 0c-.6 0-1 .4-1 1v9c0 1.7-1.3 3-3 3s-3-1.3-3-3c0-.6-.4-1-1-1s-1 .4-1 1c0 2.8 2.2 5 5 5v6c0 .6.4 1 1 1s1-.4 1-1v-6c2.8 0 5-2.2 5-5V1c0-.6-.4-1-1-1zm-1 1h2v9c0 1.7-1.3 3-3 3s-3-1.3-3-3V1h2v9c0 .6.4 1 1 1s1-.4 1-1V1z"/>
  </symbol>

  <!-- Laravel -->
  <symbol id="laravel" viewBox="0 0 24 24">
    <path fill="#ff2d20" d="M22.7 3.9L12 0 1.3 3.9v16.2L12 24l10.7-3.9V3.9zM12 2.5l7.5 2.7v12.2L12 20.5l-7.5-2.7V5.6L12 2.5zm0 12.7l-5.5-2V8.7l5.5 2 5.5-2v4.5l-5.5 2z"/>
  </symbol>

  <!-- SQL (Placeholder, generic database icon) -->
  <symbol id="sql" viewBox="0 0 24 24">
    <path fill="#336791" d="M12 2C6.5 2 2 6.5 2 12s4.5 10 10 10 10-4.5 10-10S17.5 2 12 2zm0 18c-4.4 0-8-3.6-8-8s3.6-8 8-8 8 3.6 8 8-3.6 8-8 8zm0-14c-3.3 0-6 2.7-6 6s2.7 6 6 6 6-2.7 6-6-2.7-6-6-6zm0 10c-2.2 0-4-1.8-4-4s1.8-4 4-4 4 1.8 4 4-1.8 4-4 4z"/>
  </symbol>

  <!-- Bootstrap -->
  <symbol id="bootstrap" viewBox="0 0 24 24">
    <path fill="#7952b3" d="M2 4.3c0-1.1.9-2 2-2h16c1.1 0 2 .9 2 2v15.4c0 1.1-.9 2-2 2H4c-1.1 0-2-.9-2-2V4.3zm3.7 3.4c0-1.7 1.4-3.1 3.1-3.1h6.4c1.7 0 3.1 1.4 3.1 3.1v8.6c0 1.7-1.4 3.1-3.1 3.1H8.8c-1.7 0-3.1-1.4-3.1-3.1V7.7zm6.3 8.9c2.2 0 3.9-1.8 3.9-4s-1.7-4-3.9-4H9.9c-2.2 0-3.9 1.8-3.9 4s1.7 4 3.9 4h2.2z"/>
  </symbol>

  <!-- ShadCN (Placeholder, no official icon) -->
  <symbol id="shadcn" viewBox="0 0 24 24">
    <rect width="24" height="24" fill="#000000"/>
    <path fill="#ffffff" d="M5 5h14v14H5V5zm2 2v10h10V7H7zm5 3c1.1 0 2 .9 2 2s-.9 2-2 2-2-.9-2-2 .9-2 2-2z"/>
  </symbol>

  <!-- Flowbite (Placeholder, no official icon) -->
  <symbol id="flowbite" viewBox="0 0 24 24">
    <path fill="#38bdf8" d="M12 0C5.4 0 0 5.4 0 12s5.4 12 12 12 12-5.4 12-12S18.6 0 12 0zm0 2c5.5 0 10 4.5 10 10s-4.5 10-10 10S2 17.5 2 12 6.5 2 12 2zm0 4c-3.3 0-6 2.7-6 6s2.7 6 6 6 6-2.7 6-6-2.7-6-6-6z"/>
  </symbol>

  <!-- Material UI -->
  <symbol id="mui" viewBox="0 0 24 24">
    <path fill="#007fff" d="M0 2.5V13l7.5-4.3V2.5H0zm24 0H12v6.2l7.5 4.3V2.5zm-7.5 8.7V17l7.5 4.3V13l-7.5-4.3zm-9 0l-7.5 4.3V21l7.5-4.3v-5.8z"/>
  </symbol>

  <!-- Git -->
  <symbol id="git" viewBox="0 0 24 24">
    <path fill="#f05032" d="M12 0C5.4 0 0 5.4 0 12s5.4 12 12 12 12-5.4 12-12S18.6 0 12 0zm0 2c5.5 0 10 4.5 10 10s-4.5 10-10 10S2 17.5 2 12 6.5 2 12 2zm0 3c-3.9 0-7 3.1-7 7s3.1 7 7 7 7-3.1 7-7-3.1-7-7-7zm2.5 2.5c.6 0 1 .4 1 1v4.6c0 .6-.4 1-1 1H10v3.5c0 .6-.4 1-1 1s-1-.4-1-1V12H6.5c-.6 0-1-.4-1-1s.4-1 1-1H10V7.5c0-.6.4-1 1-1s1 .4 1 1V10h2.5c.6 0 1 .4 1 1s-.4 1-1 1H12v3h2.5z"/>
  </symbol>

  <!-- GitHub -->
  <symbol id="github" viewBox="0 0 24 24">
    <path fill="#181717" d="M12 0C5.4 0 0 5.4 0 12c0 5.3 4.3 9.6 9.6 10.1.7 0 .2-.2 0-.5v-1.8c-4 0-4.8-1.9-4.8-1.9-.8 1.9-1.9 1.3-1.9 1.3-.5-.4 0-1 0-1 .6 0 1.3.8 1.3.8.8 1.4 2.2 1 2.7.8.1-.6.4-1 .8-1.2-2.9-.3-5.9-1.4-5.9-6.2 0-1.3.5-2.4 1.3-3.3-.1-.3-.6-1.6 0-3.3 0 0 1-.3 3.3 1.2 1.9-.5 3.9-.5 5.8 0 2.3-1.5 3.3-1.2 3.3-1.2.6 1.7.1 3 0 3.3.8.9 1.3 2 1.3 3.3 0 4.8-3.1 5.9-6 6.2.5.4.9 1.1.9 2.3v3.4c0 .3.5.6 1.2.5C19.7 21.6 24 17.3 24 12 24 5.4 18.6 0 12 0z"/>
  </symbol>

  <!-- Email (generic envelope icon) -->
  <symbol id="email" viewBox="0 0 24 24">
    <path fill="#ea4335" d="M2 4C2 2.9 2.9 2 4 2h16c1.1 0 2 .9 2 2v16c0 1.1-.9 2-2 2H4c-1.1 0-2-.9-2-2V4zm2 0v16h16V4H4zm1 2l7 5.5L19 6H5zm0 2.5v9h14v-9l-7 5.5-7-5.5z"/>
  </symbol>

  <!-- AWS -->
  <symbol id="aws" viewBox="0 0 24 24">
    <path fill="#ff9900" d="M12 0C5.4 0 0 5.4 0 12s5.4 12 12 12 12-5.4 12-12S18.6 0 12 0zm0 2c5.5 0 10 4.5 10 10s-4.5 10-10 10S2 17.5 2 12 6.5 2 12 2zm2.5 5.5h-5c-.6 0-1 .4-1 1v7c0 .6.4 1 1 1h2v2.5c0 .6.4 1 1 1s1-.4 1-1V14h2c.6 0 1-.4 1-1v-4.5c0-.6-.4-1-1-1zm-2.5 7h-2v-4h2v4z"/>
  </symbol>

</svg>